HIERARCHY
ROOT Hips
{
	OFFSET 63.120499 -24.544516 97.024994
	CHANNELS 6 Xposition Yposition Zposition Xrotation Yrotation Zrotation
	JOINT spine
	{
		OFFSET 0.000000 -0.458069 7.965683
		CHANNELS 3 Xrotation Yrotation Zrotation
		JOINT spine1
		{
			OFFSET 0.000000 -0.000002 10.243103
			CHANNELS 3 Xrotation Yrotation Zrotation
			JOINT spine2
			{
				OFFSET 0.000000 -0.000002 9.814751
				CHANNELS 3 Xrotation Yrotation Zrotation
				JOINT Neck
				{
					OFFSET 0.000000 -1.201384 25.198601
					CHANNELS 3 Xrotation Yrotation Zrotation
					JOINT Head
					{
						OFFSET 0.000000 0.000000 7.613144
						CHANNELS 3 Xrotation Yrotation Zrotation
						End Site
						{
							OFFSET 0.000000 6.077326 18.428101
						}
					}
				}
				JOINT RightShoulder
				{
					OFFSET -4.132698 0.575449 10.599205
					CHANNELS 3 Xrotation Yrotation Zrotation
					JOINT RightArm
					{
						OFFSET 0.000000 -0.000002 13.901794
						CHANNELS 3 Xrotation Yrotation Zrotation
						JOINT RightArmRoll
						{
							OFFSET 0.000000 0.000000 7.017883
							CHANNELS 3 Xrotation Yrotation Zrotation
							JOINT RightForeArm
							{
								OFFSET 0.000000 -0.000004 20.440598
								CHANNELS 3 Xrotation Yrotation Zrotation
								JOINT RightForeArmRoll
								{
									OFFSET 0.000000 -0.000002 7.875153
									CHANNELS 3 Xrotation Yrotation Zrotation
									JOINT RightHand
									{
										OFFSET 0.000000 -0.000002 15.803696
										CHANNELS 3 Xrotation Yrotation Zrotation
										End Site
										{
											OFFSET 0.000000 0.000000 0.100006
										}
									}
								}
							}
						}
					}
				}
				JOINT LeftShoulder
				{
					OFFSET 4.132698 0.575449 10.599205
					CHANNELS 3 Xrotation Yrotation Zrotation
					JOINT LeftArm
					{
						OFFSET 0.000000 -0.000002 13.901794
						CHANNELS 3 Xrotation Yrotation Zrotation
						JOINT LeftArmRoll
						{
							OFFSET 0.000000 0.000000 7.017883
							CHANNELS 3 Xrotation Yrotation Zrotation
							JOINT LeftForeArm
							{
								OFFSET 0.000000 -0.000004 20.440598
								CHANNELS 3 Xrotation Yrotation Zrotation
								JOINT LeftForeArmRoll
								{
									OFFSET 0.000000 -0.000002 7.875153
									CHANNELS 3 Xrotation Yrotation Zrotation
									JOINT LeftHand
									{
										OFFSET 0.000000 -0.000002 15.803696
										CHANNELS 3 Xrotation Yrotation Zrotation
										End Site
										{
											OFFSET 0.000000 0.000000 0.100006
										}
									}
								}
							}
						}
					}
				}
			}
		}
	}
	JOINT RightUpLeg
	{
		OFFSET -7.060478 1.086090 -1.294701
		CHANNELS 3 Xrotation Yrotation Zrotation
		JOINT RightUpLegRoll
		{
			OFFSET 0.000000 -0.000004 18.530800
			CHANNELS 3 Xrotation Yrotation Zrotation
			JOINT RightLeg
			{
				OFFSET 0.000000 0.000004 -22.947601
				CHANNELS 3 Xrotation Yrotation Zrotation
				JOINT RightLegRoll
				{
					OFFSET 0.000000 -0.000004 23.022598
					CHANNELS 3 Xrotation Yrotation Zrotation
					JOINT RightFoot
					{
						OFFSET 0.000000 -0.000002 19.162506
						CHANNELS 3 Xrotation Yrotation Zrotation
						JOINT RightToeBase
						{
							OFFSET 0.000000 -0.000004 16.018799
							CHANNELS 3 Xrotation Yrotation Zrotation
							End Site
							{
								OFFSET 0.006790 0.894205 7.757812
							}
						}
					}
				}
			}
		}
	}
	JOINT LeftUpLeg
	{
		OFFSET 7.060478 1.086090 -1.294701
		CHANNELS 3 Xrotation Yrotation Zrotation
		JOINT LeftUpLegRoll
		{
			OFFSET 0.000000 -0.000004 18.530899
			CHANNELS 3 Xrotation Yrotation Zrotation
			JOINT LeftLeg
			{
				OFFSET 0.000000 -0.000004 22.947502
				CHANNELS 3 Xrotation Yrotation Zrotation
				JOINT LeftLegRoll
				{
					OFFSET 0.000000 -0.000004 23.235504
					CHANNELS 3 Xrotation Yrotation Zrotation
					JOINT LeftFoot
					{
						OFFSET 0.000000 -0.000002 18.949600
						CHANNELS 3 Xrotation Yrotation Zrotation
						JOINT LeftToeBase
						{
							OFFSET 0.000000 -0.000004 16.018799
							CHANNELS 3 Xrotation Yrotation Zrotation
							End Site
							{
								OFFSET -0.030426 0.894205 7.757812
							}
						}
					}
				}
			}
		}
	}
}
MOTION
Frames: 8
Frame Time: 0.041667
61.270100 -24.090811 97.006790 -6.718969 -0.131396 4.658971 -1.097145 0.460360 -0.262244 1.810655 0.923574 -0.520178 3.455793 0.917275 -0.531204 24.746460 -14.439302 3.970001 10.612537 5.986456 1.970773 -14.295292 -21.429515 -15.377693 -149.025698 -173.556664 -87.790054 0.000000 0.000004 0.000011 88.172811 -0.400734 5.819710 0.000000 0.000009 -3.009510 -5.000155 -7.999950 -0.000003 -1.358830 66.818873 2.501788 -51.574482 114.340365 50.709954 0.000002 -0.000001 -0.000000 11.262473 11.603031 -0.499801 0.000001 -0.000004 3.000000 -5.000245 7.998875 -0.000141 5.133338 -177.481141 4.231476 -179.999991 0.000005 -1.231997 174.867910 -3.058710 -0.474574 -0.000003 0.000002 0.050520 68.499291 6.926717 2.080571 25.456950 -7.355613 0.000002 3.521841 172.940226 -2.872817 -0.000005 -0.000004 -1.208099 -8.590539 1.139129 0.322683 -0.000006 0.000001 -0.134958 69.523375 -6.900619 -2.072542 25.456950 7.355613 -0.000011 
61.281898 -24.091915 97.013588 -6.707385 -0.118897 4.635947 -1.100305 0.459261 -0.262175 1.804324 0.921276 -0.520024 3.449460 0.914981 -0.531024 24.728205 -14.384278 3.975819 10.625104 5.975799 1.983834 -14.290491 -21.472066 -15.372638 -149.082116 -173.424227 -87.728084 -0.000002 0.000002 0.000011 87.941390 -0.365549 5.793822 0.000001 0.000007 -3.009510 -5.000152 -7.999952 -0.000004 -1.414496 66.835286 2.566175 -51.526435 114.314772 50.665271 0.000000 -0.000001 -0.000001 11.273382 11.609968 -0.502021 -0.000000 -0.000005 3.000001 -5.000243 7.998875 -0.000141 5.122276 -177.492042 4.222548 -179.999991 0.000005 -1.231997 174.868825 -3.057721 -0.474437 -0.000003 0.000002 0.050536 68.500527 6.926622 2.080675 25.456953 -7.355615 0.000002 3.520761 172.927235 -2.885117 -0.000005 -0.000004 -1.207979 -8.585892 1.146104 0.322792 -0.000006 0.000001 -0.135602 69.525281 -6.900597 -2.072421 25.456950 7.355612 -0.000012 
61.282806 -24.109610 97.011482 -6.695804 -0.106360 4.612744 -1.103444 0.458107 -0.262170 1.798051 0.918873 -0.520002 3.443186 0.912577 -0.530973 24.708160 -14.328794 3.981289 10.638989 5.966011 1.996597 -14.286096 -21.516525 -15.368487 -149.137508 -173.288115 -87.664542 0.000001 0.000003 0.000011 87.702067 -0.328603 5.766321 0.000001 0.000007 -3.009509 -5.000153 -7.999953 -0.000004 -1.469173 66.850996 2.629357 -51.476892 114.289965 50.618313 0.000002 -0.000001 -0.000001 11.282843 11.616472 -0.504067 -0.000001 -0.000005 3.000000 -5.000247 7.998875 -0.000141 5.111104 -177.501973 4.213799 -179.999991 0.000005 -1.231997 174.869631 -3.056731 -0.474305 -0.000003 0.000001 0.050553 68.501770 6.926525 2.080678 25.456952 -7.355613 0.000001 3.519804 172.915255 -2.896609 -0.000005 -0.000004 -1.207869 -8.581038 1.152447 0.322867 -0.000006 0.000001 -0.136276 69.527576 -6.900516 -2.072363 25.456950 7.355610 -0.000011 
61.286602 -24.115509 97.015289 -6.684356 -0.093862 4.589340 -1.106513 0.456907 -0.262219 1.791908 0.916386 -0.520086 3.437044 0.910089 -0.531026 24.686450 -14.272935 3.986447 10.654299 5.957171 2.009012 -14.282344 -21.562996 -15.365243 -149.191836 -173.148601 -87.599806 0.000000 0.000004 0.000012 87.455661 -0.289987 5.737056 0.000001 0.000008 -3.009512 -5.000154 -7.999950 -0.000003 -1.522751 66.865995 2.691231 -51.425836 114.265937 50.569064 0.000002 -0.000001 -0.000001 11.290748 11.622251 -0.505877 0.000001 -0.000004 3.000001 -5.000246 7.998874 -0.000141 5.099968 -177.511876 4.205176 -179.999991 0.000005 -1.231997 174.870314 -3.055742 -0.474179 -0.000003 0.000001 0.050569 68.502904 6.926461 2.080695 25.456957 -7.355615 0.000002 3.519100 172.903275 -2.907525 -0.000005 -0.000004 -1.207770 -8.576116 1.158315 0.322935 -0.000005 0.000000 -0.136956 69.530199 -6.900414 -2.072280 25.456947 7.355612 -0.000011 
61.295200 -24.065714 97.010498 -6.673188 -0.081478 4.565686 -1.109463 0.455671 -0.262306 1.785997 0.913839 -0.520250 3.431131 0.907541 -0.531159 24.662686 -14.217005 3.991287 10.671142 5.949334 2.021061 -14.279135 -21.611567 -15.363095 -149.245234 -173.005905 -87.534229 -0.000000 0.000004 0.000012 87.203020 -0.249746 5.706012 0.000000 0.000010 -3.009512 -5.000159 -7.999950 -0.000007 -1.575127 66.880686 2.751699 -51.377202 114.241696 50.521673 0.000001 -0.000000 -0.000001 11.296988 11.627504 -0.507480 -0.000001 -0.000004 3.000001 -5.000241 7.998874 -0.000141 5.089028 -177.521794 4.196775 -179.999991 0.000005 -1.231997 174.870943 -3.054738 -0.474055 -0.000002 0.000001 0.050585 68.503929 6.926388 2.080816 25.456953 -7.355615 0.000002 3.518743 172.892292 -2.917929 -0.000005 -0.000004 -1.207671 -8.571252 1.163868 0.323016 -0.000005 -0.000000 -0.137631 69.532910 -6.900316 -2.072194 25.456948 7.355609 -0.000010 
61.297100 -24.083513 97.007683 -6.662443 -0.069286 4.541746 -1.112253 0.454408 -0.262421 1.780415 0.911258 -0.520468 3.425538 0.904958 -0.531347 24.636873 -14.160918 3.995711 10.689516 5.942567 2.032720 -14.276571 -21.662143 -15.361963 -149.297553 -172.860340 -87.467976 0.000002 0.000002 0.000012 86.945064 -0.207970 5.673118 0.000000 0.000008 -3.009510 -5.000155 -7.999951 -0.000004 -1.626183 66.894975 2.810640 -51.327888 114.218610 50.472660 0.000003 -0.000001 -0.000001 11.301371 11.632143 -0.508823 -0.000004 -0.000005 3.000001 -5.000246 7.998874 -0.000141 5.078434 -177.530714 4.188731 -179.999991 0.000005 -1.231997 174.871503 -3.053747 -0.473936 -0.000003 0.000001 0.050601 68.504953 6.926280 2.080833 25.456953 -7.355613 0.000002 3.518845 172.881309 -2.928032 -0.000005 -0.000004 -1.207581 -8.566586 1.169232 0.323126 -0.000006 0.000001 -0.138279 69.535731 -6.900224 -2.072103 25.456948 7.355614 -0.000012 
61.295105 -24.132511 97.011795 -6.652254 -0.057360 4.517480 -1.114845 0.453129 -0.262549 1.775223 0.908665 -0.520717 3.420354 0.902361 -0.531565 24.608823 -14.104868 3.999742 10.709517 5.936939 2.043944 -14.274785 -21.714995 -15.362062 -149.348684 -172.712139 -87.401471 0.000003 0.000004 0.000012 86.682682 -0.164707 5.638305 0.000001 0.000009 -3.009511 -5.000153 -7.999950 -0.000007 -1.675822 66.909059 2.867976 -51.279442 114.195995 50.423721 -0.000001 -0.000000 -0.000001 11.303886 11.636270 -0.509926 0.000001 -0.000004 3.000000 -5.000242 7.998875 -0.000141 5.068350 -177.539648 4.181022 -179.999991 0.000005 -1.231997 174.872008 -3.052756 -0.473820 -0.000003 0.000001 0.050618 68.505875 6.926200 2.080959 25.456953 -7.355615 0.000002 3.519547 172.871337 -2.937907 -0.000005 -0.000004 -1.207491 -8.562242 1.174575 0.323288 -0.000006 0.000001 -0.138888 69.538566 -6.900130 -2.072008 25.456952 7.355613 -0.000012 
61.279999 -24.120413 97.004295 -6.642782 -0.045777 4.492848 -1.117184 0.451842 -0.262679 1.770542 0.906083 -0.520972 3.415672 0.899777 -0.531789 24.578352 -14.049060 4.003355 10.731348 5.932524 2.054688 -14.273656 -21.769947 -15.363324 -149.398749 -172.561574 -87.334897 0.000001 0.000003 0.000010 86.416715 -0.120039 5.601491 0.000002 0.000006 -3.009508 -5.000160 -7.999952 -0.000005 -1.723931 66.923150 2.923573 -51.232696 114.174221 50.375548 0.000001 -0.000001 -0.000001 11.304339 11.639787 -0.510759 -0.000002 -0.000004 3.000001 -5.000243 7.998876 -0.000141 5.058913 -177.547571 4.173803 -179.999991 0.000005 -1.231997 174.872527 -3.052759 -0.473793 -0.000003 0.000001 0.050634 68.506804 6.926119 2.080886 25.456952 -7.355614 0.000002 3.520945 172.861364 -2.947762 -0.000005 -0.000004 -1.207401 -8.558369 1.180046 0.323525 -0.000006 0.000000 -0.139434 69.541393 -6.900036 -2.071914 25.456948 7.355610 -0.000010 
